<svg xmlns="http://www.w3.org/2000/svg" viewBox="0 0 24 24" fill="currentColor">
  <path d="M12 4.5a1 1 0 0 0 1-1V2a1 1 0 1 0-2 0v1.5a1 1 0 0 0 1 1zm0 15a1 1 0 0 0-1 1V22a1 1 0 1 0 2 0v-1.5a1 1 0 0 0-1-1zM4.5 13H3a1 1 0 1 0 0-2h1.5a1 1 0 0 0 0 2zm16.5 0a1 1 0 0 0 0-2h-1.5a1 1 0 0 0 0 2zM7.05 6.636a1 1 0 1 0-1.414-1.414L4.222 6.636a1 1 0 1 0 1.414 1.414L7.05 6.636zm11.314 10.728a1 1 0 1 0 1.414 1.414l1.414-1.414a1 1 0 1 0-1.414-1.414l-1.414 1.414zM7.05 17.364l-1.414 1.414a1 1 0 0 0 1.414 1.414l1.414-1.414a1 1 0 1 0-1.414-1.414zm10.607-12.728a1 1 0 1 0-1.414 1.414l1.414 1.414a1 1 0 0 0 1.414-1.414L17.657 4.636zM12 7a5 5 0 1 1 0 10A5 5 0 0 1 12 7z"/>
</svg>


